<?xml version="1.0" encoding="UTF-8" standalone="no"?>
<!-- Created with Inkscape (http://www.inkscape.org/) -->
<svg
   xmlns:svg="http://www.w3.org/2000/svg"
   xmlns="http://www.w3.org/2000/svg"
   version="1.0"
   width="800"
   height="800"
   id="svg2">
  <defs
     id="defs4" />
  <g
     id="layer1">
    <path
       d="M 774.28571 400 A 374.28571 374.28571 0 1 1  25.714294,400 A 374.28571 374.28571 0 1 1  774.28571 400 z"
       transform="translate(12.2192,13.57689)"
       style="opacity:1;fill:black;fill-opacity:0.17894736;fill-rule:evenodd;stroke:none;stroke-width:1;stroke-miterlimit:4;stroke-dasharray:none"
       id="path4581" />
    <path
       d="M 774.28571 400 A 374.28571 374.28571 0 1 1  25.714294,400 A 374.28571 374.28571 0 1 1  774.28571 400 z"
       style="opacity:1;fill:black;fill-opacity:1;fill-rule:evenodd;stroke:none;stroke-width:1;stroke-miterlimit:4;stroke-dasharray:none"
       id="path1872" />
    <path
       d="M 774.28571 400 A 374.28571 374.28571 0 1 1  25.714294,400 A 374.28571 374.28571 0 1 1  774.28571 400 z"
       transform="matrix(0.939046,0,0,0.946679,24.38164,21.32823)"
       style="opacity:0.50458715;fill:none;fill-opacity:1;fill-rule:evenodd;stroke:white;stroke-width:2.33864212;stroke-miterlimit:4;stroke-dasharray:none;stroke-opacity:0.74736837"
       id="path1898" />
    <path
       d="M 400,25.71875 C 193.39429,25.71875 25.71875,193.39429 25.71875,400 C 25.71875,606.60571 193.39429,774.28125 400,774.28125 C 606.60571,774.28125 774.28125,606.60571 774.28125,400 C 774.28125,193.39429 606.60571,25.71875 400,25.71875 z "
       transform="matrix(0.884744,0,0,0.891936,46.10241,43.22556)"
       style="opacity:0.50458715;fill:none;fill-opacity:1;fill-rule:evenodd;stroke:white;stroke-width:2.48217797;stroke-miterlimit:4;stroke-dasharray:none;stroke-opacity:0.74736837"
       id="path3678" />
    <path
       d="M 400,25.71875 C 193.39429,25.71875 25.71875,193.39429 25.71875,400 C 25.71875,606.60571 193.39429,774.28125 400,774.28125 C 606.60571,774.28125 774.28125,606.60571 774.28125,400 C 774.28125,193.39429 606.60571,25.71875 400,25.71875 z "
       transform="matrix(0.823201,0,0,0.829893,70.71958,68.04284)"
       style="opacity:0.50458715;fill:none;fill-opacity:1;fill-rule:evenodd;stroke:white;stroke-width:2.66774678;stroke-miterlimit:4;stroke-dasharray:none;stroke-opacity:0.74736837"
       id="path3680" />
    <path
       d="M 400,25.71875 C 193.39429,25.71875 25.71875,193.39429 25.71875,400 C 25.71875,606.60571 193.39429,774.28125 400,774.28125 C 606.60571,774.28125 774.28125,606.60571 774.28125,400 C 774.28125,193.39429 606.60571,25.71875 400,25.71875 z "
       transform="matrix(0.744198,0,0,0.750248,102.3207,99.90087)"
       style="opacity:0.50458715;fill:none;fill-opacity:1;fill-rule:evenodd;stroke:white;stroke-width:2.95095038;stroke-miterlimit:4;stroke-dasharray:none;stroke-opacity:0.74736837"
       id="path3682" />
    <path
       d="M 400,25.71875 C 193.39429,25.71875 25.71875,193.39429 25.71875,400 C 25.71875,606.60571 193.39429,774.28125 400,774.28125 C 606.60571,774.28125 774.28125,606.60571 774.28125,400 C 774.28125,193.39429 606.60571,25.71875 400,25.71875 z "
       transform="matrix(0.665195,0,0,0.670603,133.9218,131.7589)"
       style="opacity:0.50458715;fill:none;fill-opacity:1;fill-rule:evenodd;stroke:white;stroke-width:3.3014245;stroke-miterlimit:4;stroke-dasharray:none;stroke-opacity:0.74736837"
       id="path3684" />
    <path
       d="M 400,25.71875 C 193.39429,25.71875 25.71875,193.39429 25.71875,400 C 25.71875,606.60571 193.39429,774.28125 400,774.28125 C 606.60571,774.28125 774.28125,606.60571 774.28125,400 C 774.28125,193.39429 606.60571,25.71875 400,25.71875 z "
       transform="matrix(0.589783,0,0,0.594578,164.0865,162.1688)"
       style="opacity:0.50458715;fill:none;fill-opacity:1;fill-rule:evenodd;stroke:white;stroke-width:3.72355747;stroke-miterlimit:4;stroke-dasharray:none;stroke-opacity:0.74736837"
       id="path3686" />
    <path
       d="M 400,25.71875 C 193.39429,25.71875 25.71875,193.39429 25.71875,400 C 25.71875,606.60571 193.39429,774.28125 400,774.28125 C 606.60571,774.28125 774.28125,606.60571 774.28125,400 C 774.28125,193.39429 606.60571,25.71875 400,25.71875 z "
       transform="matrix(0.521,0,0,0.525236,191.5998,189.9058)"
       style="opacity:0.50458715;fill:none;fill-opacity:1;fill-rule:evenodd;stroke:white;stroke-width:4.21514463;stroke-miterlimit:4;stroke-dasharray:none;stroke-opacity:0.74736837"
       id="path3688" />
    <path
       d="M 400,25.71875 C 193.39429,25.71875 25.71875,193.39429 25.71875,400 C 25.71875,606.60571 193.39429,774.28125 400,774.28125 C 606.60571,774.28125 774.28125,606.60571 774.28125,400 C 774.28125,193.39429 606.60571,25.71875 400,25.71875 z "
       transform="matrix(0.455837,0,0,0.459543,217.665,216.183)"
       style="opacity:0.50458715;fill:none;fill-opacity:1;fill-rule:evenodd;stroke:white;stroke-width:4.81771088;stroke-miterlimit:4;stroke-dasharray:none;stroke-opacity:0.74736837"
       id="path3690" />
    <path
       d="M 400,25.71875 C 193.39429,25.71875 25.71875,193.39429 25.71875,400 C 25.71875,606.60571 193.39429,774.28125 400,774.28125 C 606.60571,774.28125 774.28125,606.60571 774.28125,400 C 774.28125,193.39429 606.60571,25.71875 400,25.71875 z "
       transform="matrix(0.383434,0,0,0.386551,246.6264,245.3798)"
       style="opacity:0.50458715;fill:none;fill-opacity:1;fill-rule:evenodd;stroke:white;stroke-width:5.7274313;stroke-miterlimit:4;stroke-dasharray:none;stroke-opacity:0.74736837"
       id="path3692" />
    <path
       d="M 400,25.71875 C 193.39429,25.71875 25.71875,193.39429 25.71875,400 C 25.71875,606.60571 193.39429,774.28125 400,774.28125 C 606.60571,774.28125 774.28125,606.60571 774.28125,400 C 774.28125,193.39429 606.60571,25.71875 400,25.71875 z "
       transform="matrix(0.30741,0,0,0.309909,277.0358,276.0364)"
       style="opacity:1;fill:white;fill-opacity:1;fill-rule:evenodd;stroke:white;stroke-width:1.5;stroke-miterlimit:4;stroke-dasharray:none;stroke-opacity:1"
       id="path3694" />
    <path
       d="M 400,25.71875 C 193.39429,25.71875 25.71875,193.39429 25.71875,400 C 25.71875,606.60571 193.39429,774.28125 400,774.28125 C 606.60571,774.28125 774.28125,606.60571 774.28125,400 C 774.28125,193.39429 606.60571,25.71875 400,25.71875 z "
       transform="matrix(3.08589e-2,0,0,3.110976e-2,387.6562,387.5561)"
       style="opacity:1;fill:black;fill-opacity:1;fill-rule:evenodd;stroke:white;stroke-width:1.5;stroke-miterlimit:4;stroke-dasharray:none;stroke-opacity:1"
       id="path6353" />
    <path
       d="M 374.73898,331.33261 L 366.26633,365.60995 L 362.01242,365.60995 L 353.50461,331.33261 L 358.32101,331.33261 L 364.15695,358.2623 L 370.0632,331.33261 L 374.73898,331.33261 z M 385.46164,323.84433 L 380.71555,323.84433 L 380.71555,317.93808 L 385.46164,317.93808 L 385.46164,323.84433 z M 385.39133,365.53964 L 380.78586,365.53964 L 380.78586,331.33261 L 385.39133,331.33261 L 385.39133,365.53964 z M 412.95383,365.53964 L 408.27805,365.53964 L 408.27805,335.5162 L 397.97726,335.79745 L 397.97726,365.53964 L 393.30148,365.53964 L 393.30148,331.33261 L 397.97726,331.33261 L 397.97726,332.28183 C 399.80538,332.04749 401.64522,331.80139 403.4968,331.54355 C 405.74678,331.26233 407.59834,331.12171 409.05148,331.12167 C 411.65302,331.12171 412.9538,332.39905 412.95383,334.9537 L 412.95383,365.53964 z M 439.84836,331.33261 L 431.6218,365.25839 L 428.21164,378.5123 L 423.60617,378.5123 L 427.05148,365.25839 L 418.61398,331.33261 L 423.43039,331.33261 L 429.26633,358.2623 L 435.17258,331.33261 L 439.84836,331.33261 z M 450.5007,365.53964 L 445.89523,365.53964 L 445.89523,310.52011 L 450.5007,310.52011 L 450.5007,365.53964 z "
       style="font-size:48px;font-style:normal;font-weight:normal;fill:black;fill-opacity:1;stroke:none;stroke-width:1px;stroke-linecap:butt;stroke-linejoin:miter;stroke-opacity:1;font-family:Agency FB"
       id="text6367" />
    <path
       d="M 377.63016,467.3663 L 372.98953,467.3663 L 372.98953,466.41708 C 367.97389,467.19052 365.19655,467.57724 364.6575,467.57724 C 362.66531,467.57724 361.05984,466.90341 359.84109,465.55576 C 358.62234,464.2081 358.01297,462.52646 358.01297,460.51083 L 358.01297,440.50693 C 358.01297,438.39758 358.70437,436.64563 360.08719,435.25107 C 361.46999,433.85657 363.20437,433.15931 365.29031,433.15927 L 372.98953,433.15927 L 372.98953,412.34677 L 377.63016,412.34677 L 377.63016,467.3663 z M 372.98953,463.1124 L 372.98953,437.27255 L 366.52078,437.27255 C 363.94265,437.27258 362.65359,438.5968 362.65359,441.24521 L 362.65359,459.52646 C 362.65359,462.15146 363.94265,463.46396 366.52078,463.46396 C 367.13014,463.46396 369.28639,463.34678 372.98953,463.1124 L 372.98953,463.1124 z M 390.28641,425.67099 L 385.54031,425.67099 L 385.54031,419.76474 L 390.28641,419.76474 L 390.28641,425.67099 z M 390.21609,467.3663 L 385.61063,467.3663 L 385.61063,433.15927 L 390.21609,433.15927 L 390.21609,467.3663 z M 416.54813,463.39365 C 416.5481,466.04209 415.22389,467.3663 412.57547,467.3663 L 401.85281,467.3663 C 399.20437,467.3663 397.88015,466.04209 397.88016,463.39365 L 397.88016,455.62411 L 402.48563,455.62411 L 402.48563,463.32333 L 411.94266,463.32333 L 411.94266,456.50302 L 399.70828,446.48349 C 398.5364,445.54601 397.95047,444.32726 397.95047,442.82724 L 397.95047,437.13193 C 397.95047,434.48352 399.27468,433.15931 401.92313,433.15927 L 412.50516,433.15927 C 415.15357,433.15931 416.47779,434.48352 416.47781,437.13193 L 416.47781,443.95224 L 411.94266,443.95224 L 411.94266,437.20224 L 402.48563,437.20224 L 402.48563,443.1788 L 414.82547,453.19833 C 415.97389,454.11241 416.5481,455.3546 416.54813,456.9249 L 416.54813,463.39365 z M 442.98563,463.39365 C 442.9856,466.04209 441.6731,467.3663 439.04813,467.3663 L 427.93875,467.3663 C 425.31375,467.3663 424.00125,466.04209 424.00125,463.39365 L 424.00125,437.13193 C 424.00125,434.48352 425.31375,433.15931 427.93875,433.15927 L 439.04813,433.15927 C 441.6731,433.15931 442.9856,434.48352 442.98563,437.13193 L 442.98563,443.95224 L 438.38016,443.95224 L 438.38016,437.27255 L 428.67703,437.27255 L 428.67703,463.25302 L 438.38016,463.25302 L 438.38016,455.62411 L 442.98563,455.62411 L 442.98563,463.39365 z "
       style="font-size:48px;font-style:normal;font-weight:normal;fill:black;fill-opacity:1;stroke:none;stroke-width:1px;stroke-linecap:butt;stroke-linejoin:miter;stroke-opacity:1;font-family:Agency FB"
       id="text6379" />
  </g>
</svg>
